<?xml version="1.0" encoding="utf-8"?>
<!-- Generator: Adobe Illustrator 22.1.0, SVG Export Plug-In . SVG Version: 6.00 Build 0)  -->
<svg version="1.1" id="Layer_1" xmlns="http://www.w3.org/2000/svg" xmlns:xlink="http://www.w3.org/1999/xlink" x="0px" y="0px"
	 viewBox="0 0 500 500" style="enable-background:new 0 0 500 500;" xml:space="preserve">
<style type="text/css">
	.st0{fill:#E1A101;}
</style>
<path class="st0" d="M-314.6,116.8c59.7,29.8,119,59.5,178.5,89.3c-29.8,59.7-59.5,119-89.3,178.6c-24.5-12.2-48.7-24.3-74.1-36.9
	c0,43.1,0,85,0,127.1c-65.4,0-129.8,0-194.2,0C-434.1,355.6-374.5,236.5-314.6,116.8z"/>
<path d="M205.4,116.8c59.7,29.8,119,59.5,178.5,89.3c-29.8,59.7-59.5,119-89.3,178.6c-24.5-12.2-48.7-24.3-74.1-36.9
	c0,43.1,0,85,0,127.1c-65.4,0-129.8,0-194.2,0C85.9,355.6,145.5,236.5,205.4,116.8z"/>
</svg>
